<svg width="100" height="100" viewBox="0 0 100 100" fill="none" xmlns="http://www.w3.org/2000/svg">
<g clip-path="url(#clip0_483_10)">
<path d="M41.3133 99.2242C14.159 94.4584 -4.01782 68.4678 0.775755 41.3134C5.56933 14.1591 31.5322 -4.01769 58.6865 0.775878C85.8409 5.56945 104.018 31.5323 99.2518 58.6867C94.4859 85.841 68.4953 104.018 41.341 99.2242H41.3133ZM56.2759 14.4085C36.6583 10.9449 17.8719 24.1064 14.4083 43.7241C10.9448 63.3417 24.1063 82.1281 43.7239 85.5916C63.3416 89.0552 82.1279 75.8936 85.5915 56.276C89.055 36.6584 75.8935 17.872 56.2759 14.4085Z" fill="#CCCCCB"/>
<path d="M67.0821 96.9798C41.1746 106.401 12.4409 92.9898 3.02 67.11C-6.4009 41.2303 6.98231 12.4689 32.8898 3.02026C51.8147 -3.87916 72.9009 1.2192 86.6166 15.9601L76.4753 25.4087C66.5556 14.741 51.3159 11.0834 37.6279 16.0433C18.897 22.8595 9.2267 43.6409 16.043 62.3719C22.8593 81.1028 43.6407 90.7731 62.3716 83.9845C81.1026 77.1682 90.7728 56.3868 83.9565 37.6559L96.9795 32.9177C106.4 58.8252 93.0172 87.5589 67.1098 96.9798H67.0821Z" fill="black"/>
<path d="M43.9688 46H42.3164L46.9746 33.2734H48.6445L53.3027 46H51.6328L50.3672 42.4141H45.252L43.9688 46ZM45.7266 41.0254H49.875L47.8535 35.3301H47.748L45.7266 41.0254ZM54.9375 46V36.4551H56.4492V46H54.9375ZM55.6934 34.873C55.1133 34.873 54.6387 34.4336 54.6387 33.8711C54.6387 33.3086 55.1133 32.8691 55.6934 32.8691C56.2734 32.8691 56.7656 33.3086 56.7656 33.8711C56.7656 34.4336 56.2734 34.873 55.6934 34.873Z" fill="black"/>
<path d="M36.4316 54.0977C38.6289 54.1152 41.0547 55.4336 41.0547 60.127C41.0547 64.6445 39.209 67.1758 36.2207 67.1758C33.9883 67.1758 32.4062 65.8047 32.0898 63.7832H33.6543C33.9355 64.9258 34.7969 65.7695 36.2207 65.7695C38.2949 65.7695 39.5605 63.9766 39.5781 60.8828H39.4023C38.6641 61.9375 37.5039 62.5703 36.1504 62.5703C33.8652 62.5703 31.9844 60.8301 31.9844 58.3691C31.9844 55.9961 33.7246 54.0801 36.4316 54.0977ZM36.4316 55.4863C34.7617 55.4863 33.5137 56.7871 33.5312 58.3516C33.5312 59.9336 34.709 61.1816 36.3789 61.1816C38.0312 61.1816 39.332 59.8105 39.332 58.3164C39.332 56.8574 38.1191 55.4863 36.4316 55.4863ZM47.4004 67.1758C44.5703 67.1758 42.9531 64.8027 42.9531 60.6367C42.9531 56.5059 44.6055 54.0977 47.4004 54.0977C50.1953 54.0977 51.8477 56.5059 51.8477 60.6367C51.8477 64.8027 50.2129 67.1758 47.4004 67.1758ZM47.4004 65.7695C49.2285 65.7695 50.3008 63.9238 50.3008 60.6367C50.3008 57.3496 49.2285 55.4688 47.4004 55.4688C45.5723 55.4688 44.4824 57.3496 44.4824 60.6367C44.4824 63.9238 45.5547 65.7695 47.4004 65.7695ZM56.6465 60.1797C54.9941 60.1797 54.0977 58.9492 54.0977 57.1211C54.0977 55.3281 55.0293 54.0801 56.6465 54.0801C58.3164 54.0801 59.1953 55.3281 59.1953 57.1211C59.1953 58.9492 58.2812 60.1797 56.6465 60.1797ZM56.6465 59.0898C57.5078 59.0898 57.9121 58.3164 57.9121 57.1211C57.9121 55.9434 57.543 55.1523 56.6465 55.1699C55.8027 55.1699 55.3809 55.9434 55.3809 57.1211C55.3809 58.3164 55.8027 59.0898 56.6465 59.0898ZM64.416 67.1758C62.7637 67.1934 61.8496 65.9453 61.8672 64.1348C61.8496 62.3242 62.7988 61.0762 64.416 61.0762C66.0684 61.0762 66.9473 62.3242 66.9473 64.1348C66.9473 65.9453 66.0332 67.1934 64.416 67.1758ZM64.416 66.0859C65.2598 66.0859 65.6641 65.3125 65.6641 64.1348C65.6641 62.9395 65.2949 62.1484 64.416 62.166C63.5723 62.1836 63.1328 62.9395 63.1328 64.1348C63.1328 65.3125 63.5547 66.0859 64.416 66.0859ZM55.3457 67L64.0996 54.2734H65.5234L56.7695 67H55.3457Z" fill="black"/>
</g>
<defs>
<clipPath id="clip0_483_10">
<rect width="100" height="100" fill="white"/>
</clipPath>
</defs>
</svg>
