<svg width="100" height="100" viewBox="0 0 100 100" fill="none" xmlns="http://www.w3.org/2000/svg">
<g clip-path="url(#clip0_483_25)">
<path d="M50 100C22.4224 100 0 77.5776 0 50C0 22.4224 22.4224 0 50 0C77.5776 0 100 22.4224 100 50C100 77.5776 77.5776 100 50 100ZM50 13.8581C30.0721 13.8581 13.8581 30.0721 13.8581 50C13.8581 69.9279 30.0721 86.1419 50 86.1419C69.9279 86.1419 86.1419 69.9279 86.1419 50C86.1419 30.0721 69.9279 13.8581 50 13.8581Z" fill="#CCCCCB"/>
<path d="M50 100C22.4224 100 0 77.5776 0 50C0 22.4224 22.4224 0 50 0C61.8071 0 73.2816 4.18514 82.2894 11.8071L73.337 22.3947C66.8237 16.8792 58.5366 13.8581 50 13.8581C30.0721 13.8581 13.8581 30.0721 13.8581 50C13.8581 69.9279 30.0721 86.1419 50 86.1419C69.9279 86.1419 86.1419 69.9279 86.1419 50H100C100 77.5776 77.5776 100 50 100Z" fill="black"/>
<path d="M26.4062 46V33.2734H27.9883V38.9336H34.7207V33.2734H36.3203V46H34.7207V40.3223H27.9883V46H26.4062ZM38.4121 34.6797V33.2734H48.0098V34.6797H44.0195V46H42.4199V34.6797H38.4121ZM50.1191 33.2734H52.0176L56.3066 43.75H56.4648L60.7539 33.2734H62.6523V46H61.1582V36.3848H61.0352L57.0801 46H55.6738L51.7188 36.3848H51.6133V46H50.1191V33.2734ZM65.4648 46V33.2734H67.0469V44.5938H72.9531V46H65.4648Z" fill="black"/>
<path d="M35.9492 67.1758C33.2773 67.1758 31.4141 65.6992 31.4316 63.625C31.4141 61.9727 32.5566 60.6191 34.0156 60.3906V60.3203C32.75 60.0215 31.9238 58.8613 31.9238 57.4727C31.9238 55.5215 33.6289 54.0977 35.9492 54.0977C38.2695 54.0977 39.9746 55.5215 39.9922 57.4727C39.9746 58.8613 39.1309 60.0215 37.8828 60.3203V60.3906C39.3242 60.6191 40.4668 61.9727 40.4844 63.625C40.4668 65.6992 38.6035 67.1758 35.9492 67.1758ZM35.9492 65.7871C37.7773 65.7871 38.9023 64.873 38.9023 63.5371C38.9023 62.1309 37.6543 61.0938 35.9492 61.0938C34.2441 61.0938 32.9785 62.1309 33.0137 63.5371C32.9785 64.873 34.1211 65.7871 35.9492 65.7871ZM35.9492 59.7578C37.3906 59.7578 38.4453 58.8789 38.4453 57.5957C38.4453 56.3301 37.4434 55.4688 35.9492 55.4688C34.4375 55.4688 33.4531 56.3301 33.4531 57.5957C33.4531 58.8789 34.4902 59.7578 35.9492 59.7578ZM46.7773 67.1758C43.9473 67.1758 42.3301 64.8027 42.3301 60.6367C42.3301 56.5059 43.9824 54.0977 46.7773 54.0977C49.5723 54.0977 51.2246 56.5059 51.2246 60.6367C51.2246 64.8027 49.5898 67.1758 46.7773 67.1758ZM46.7773 65.7695C48.6055 65.7695 49.6777 63.9238 49.6777 60.6367C49.6777 57.3496 48.6055 55.4688 46.7773 55.4688C44.9492 55.4688 43.8594 57.3496 43.8594 60.6367C43.8594 63.9238 44.9316 65.7695 46.7773 65.7695ZM56.0234 60.1797C54.3711 60.1797 53.4746 58.9492 53.4746 57.1211C53.4746 55.3281 54.4062 54.0801 56.0234 54.0801C57.6934 54.0801 58.5723 55.3281 58.5723 57.1211C58.5723 58.9492 57.6582 60.1797 56.0234 60.1797ZM56.0234 59.0898C56.8848 59.0898 57.2891 58.3164 57.2891 57.1211C57.2891 55.9434 56.9199 55.1523 56.0234 55.1699C55.1797 55.1699 54.7578 55.9434 54.7578 57.1211C54.7578 58.3164 55.1797 59.0898 56.0234 59.0898ZM63.793 67.1758C62.1406 67.1934 61.2266 65.9453 61.2441 64.1348C61.2266 62.3242 62.1758 61.0762 63.793 61.0762C65.4453 61.0762 66.3242 62.3242 66.3242 64.1348C66.3242 65.9453 65.4102 67.1934 63.793 67.1758ZM63.793 66.0859C64.6367 66.0859 65.041 65.3125 65.041 64.1348C65.041 62.9395 64.6719 62.1484 63.793 62.166C62.9492 62.1836 62.5098 62.9395 62.5098 64.1348C62.5098 65.3125 62.9316 66.0859 63.793 66.0859ZM54.7227 67L63.4766 54.2734H64.9004L56.1465 67H54.7227Z" fill="black"/>
</g>
<defs>
<clipPath id="clip0_483_25">
<rect width="100" height="100" fill="white"/>
</clipPath>
</defs>
</svg>
