<svg width="100" height="100" viewBox="0 0 100 100" fill="none" xmlns="http://www.w3.org/2000/svg">
<g clip-path="url(#clip0_483_16)">
<path d="M41.3133 99.2242C14.159 94.4584 -4.01782 68.4678 0.775755 41.3134C5.56933 14.1591 31.5322 -4.01769 58.6865 0.775878C85.8409 5.56945 104.018 31.5323 99.2518 58.6867C94.4859 85.841 68.4953 104.018 41.341 99.2242H41.3133ZM56.2759 14.4085C36.6583 10.9449 17.8719 24.1064 14.4083 43.7241C10.9448 63.3417 24.1063 82.1281 43.7239 85.5916C63.3416 89.0552 82.1279 75.8936 85.5915 56.276C89.055 36.6584 75.8935 17.872 56.2759 14.4085Z" fill="#CCCCCB"/>
<path d="M67.0821 96.9798C41.1746 106.401 12.4409 92.9898 3.02 67.11C-6.4009 41.2303 6.98231 12.4689 32.8898 3.02026C51.8147 -3.87916 72.9009 1.2192 86.6166 15.9601L76.4753 25.4087C66.5556 14.741 51.3159 11.0834 37.6279 16.0433C18.897 22.8595 9.2267 43.6409 16.043 62.3719C22.8593 81.1028 43.6407 90.7731 62.3716 83.9845C81.1026 77.1682 90.7728 56.3868 83.9565 37.6559L96.9795 32.9177C106.4 58.8252 93.0172 87.5589 67.1098 96.9798H67.0821Z" fill="black"/>
<path d="M42.5898 37.2812C42.2207 35.5234 40.709 34.5742 39.0391 34.5742C36.7363 34.5742 34.9434 36.3496 34.9434 39.6367C34.9434 42.9238 36.7363 44.6992 39.0391 44.6992C40.709 44.6992 42.2031 43.75 42.5898 42.0098H44.1719C43.7148 44.6113 41.623 46.1758 39.0391 46.1758C35.7695 46.1758 33.4141 43.6621 33.4141 39.6367C33.4141 35.6113 35.7695 33.0977 39.0391 33.0977C41.6055 33.0977 43.6973 34.6445 44.1719 37.2812H42.5898ZM53.3301 36.4727C53.1895 35.2246 52.0469 34.5039 50.5176 34.5039C48.8301 34.5039 47.7227 35.3828 47.7227 36.5957C47.7227 37.9316 49.2168 38.4238 50.1836 38.6699L51.4492 39.0215C52.8203 39.373 55.0527 40.1641 55.0527 42.5371C55.0527 44.6113 53.3828 46.2285 50.4297 46.2285C47.6875 46.2285 45.9824 44.8047 45.8418 42.6953H47.459C47.5996 44.1191 48.918 44.7871 50.4297 44.7871C52.1875 44.7871 53.5059 43.8906 53.5059 42.502C53.5059 41.2715 52.3281 40.7969 50.9922 40.4102L49.4277 39.9883C47.4238 39.4082 46.1934 38.3887 46.1934 36.666C46.1934 34.5215 48.1094 33.0977 50.5703 33.0977C53.0312 33.0977 54.8066 34.5391 54.877 36.4727H53.3301ZM64.2637 36.4727C64.123 35.2246 62.9805 34.5039 61.4512 34.5039C59.7637 34.5039 58.6562 35.3828 58.6562 36.5957C58.6562 37.9316 60.1504 38.4238 61.1172 38.6699L62.3828 39.0215C63.7539 39.373 65.9863 40.1641 65.9863 42.5371C65.9863 44.6113 64.3164 46.2285 61.3633 46.2285C58.6211 46.2285 56.916 44.8047 56.7754 42.6953H58.3926C58.5332 44.1191 59.8516 44.7871 61.3633 44.7871C63.1211 44.7871 64.4395 43.8906 64.4395 42.502C64.4395 41.2715 63.2617 40.7969 61.9258 40.4102L60.3613 39.9883C58.3574 39.4082 57.127 38.3887 57.127 36.666C57.127 34.5215 59.043 33.0977 61.5039 33.0977C63.9648 33.0977 65.7402 34.5391 65.8105 36.4727H64.2637Z" fill="black"/>
<path d="M36.4316 54.0977C38.6289 54.1152 41.0547 55.4336 41.0547 60.127C41.0547 64.6445 39.209 67.1758 36.2207 67.1758C33.9883 67.1758 32.4062 65.8047 32.0898 63.7832H33.6543C33.9355 64.9258 34.7969 65.7695 36.2207 65.7695C38.2949 65.7695 39.5605 63.9766 39.5781 60.8828H39.4023C38.6641 61.9375 37.5039 62.5703 36.1504 62.5703C33.8652 62.5703 31.9844 60.8301 31.9844 58.3691C31.9844 55.9961 33.7246 54.0801 36.4316 54.0977ZM36.4316 55.4863C34.7617 55.4863 33.5137 56.7871 33.5312 58.3516C33.5312 59.9336 34.709 61.1816 36.3789 61.1816C38.0312 61.1816 39.332 59.8105 39.332 58.3164C39.332 56.8574 38.1191 55.4863 36.4316 55.4863ZM47.4004 67.1758C44.5703 67.1758 42.9531 64.8027 42.9531 60.6367C42.9531 56.5059 44.6055 54.0977 47.4004 54.0977C50.1953 54.0977 51.8477 56.5059 51.8477 60.6367C51.8477 64.8027 50.2129 67.1758 47.4004 67.1758ZM47.4004 65.7695C49.2285 65.7695 50.3008 63.9238 50.3008 60.6367C50.3008 57.3496 49.2285 55.4688 47.4004 55.4688C45.5723 55.4688 44.4824 57.3496 44.4824 60.6367C44.4824 63.9238 45.5547 65.7695 47.4004 65.7695ZM56.6465 60.1797C54.9941 60.1797 54.0977 58.9492 54.0977 57.1211C54.0977 55.3281 55.0293 54.0801 56.6465 54.0801C58.3164 54.0801 59.1953 55.3281 59.1953 57.1211C59.1953 58.9492 58.2812 60.1797 56.6465 60.1797ZM56.6465 59.0898C57.5078 59.0898 57.9121 58.3164 57.9121 57.1211C57.9121 55.9434 57.543 55.1523 56.6465 55.1699C55.8027 55.1699 55.3809 55.9434 55.3809 57.1211C55.3809 58.3164 55.8027 59.0898 56.6465 59.0898ZM64.416 67.1758C62.7637 67.1934 61.8496 65.9453 61.8672 64.1348C61.8496 62.3242 62.7988 61.0762 64.416 61.0762C66.0684 61.0762 66.9473 62.3242 66.9473 64.1348C66.9473 65.9453 66.0332 67.1934 64.416 67.1758ZM64.416 66.0859C65.2598 66.0859 65.6641 65.3125 65.6641 64.1348C65.6641 62.9395 65.2949 62.1484 64.416 62.166C63.5723 62.1836 63.1328 62.9395 63.1328 64.1348C63.1328 65.3125 63.5547 66.0859 64.416 66.0859ZM55.3457 67L64.0996 54.2734H65.5234L56.7695 67H55.3457Z" fill="black"/>
</g>
<defs>
<clipPath id="clip0_483_16">
<rect width="100" height="100" fill="white"/>
</clipPath>
</defs>
</svg>
