<svg width="100" height="100" viewBox="0 0 100 100" fill="none" xmlns="http://www.w3.org/2000/svg">
<g clip-path="url(#clip0_483_28)">
<path d="M50 100C22.4224 100 0 77.5776 0 50C0 22.4224 22.4224 0 50 0C77.5776 0 100 22.4224 100 50C100 77.5776 77.5776 100 50 100ZM50 13.8581C30.0721 13.8581 13.8581 30.0721 13.8581 50C13.8581 69.9279 30.0721 86.1419 50 86.1419C69.9279 86.1419 86.1419 69.9279 86.1419 50C86.1419 30.0721 69.9279 13.8581 50 13.8581Z" fill="#CCCCCB"/>
<path d="M50.4711 100C22.8935 100 0.443359 77.5776 0.443359 50C0.443359 22.4224 22.8935 0 50.4711 0V13.8581C30.5431 13.8581 14.3292 30.0721 14.3292 50C14.3292 69.9279 30.5431 86.1419 50.4711 86.1419C61.3081 86.1419 71.4799 81.347 78.3813 72.9767C81.2083 69.5399 83.3425 65.6874 84.756 61.4745C85.1994 60.1441 85.5598 58.786 85.8646 57.4279L99.4178 60.255C99.0298 62.1397 98.5032 64.0521 97.8935 65.8814C95.9533 71.7018 92.9877 77.051 89.0797 81.7905C79.5453 93.3758 65.4655 100.028 50.4711 100.028V100Z" fill="black"/>
<path d="M38.9453 23.6875H40.3672V31.7656C40.3672 33.9375 39.0859 35.1562 37.1172 35.1562C35.2422 35.1562 33.8828 34.0781 33.8828 32.3281H35.2734C35.2734 33.2812 36.0547 33.9062 37.1172 33.9062C38.2891 33.9062 38.9453 33.1719 38.9453 31.7656V23.6875ZM42.2891 32.5938C42.2891 30.6406 44.0078 30.2031 45.4766 30.0938C46.0156 30.0547 47.3906 29.9844 47.7734 29.9688V29.2812C47.7734 28.2031 47.1328 27.5781 45.8516 27.5781C44.7734 27.5781 44.1328 28.0781 43.9453 28.7188H42.5391C42.7109 27.3594 44.0391 26.4062 45.9141 26.4062C47.0234 26.4062 49.1016 26.7344 49.1016 29.4062V35H47.7734V33.8438H47.7109C47.4297 34.4219 46.6484 35.2031 45.1797 35.2031C43.5703 35.2031 42.2891 34.25 42.2891 32.5938ZM43.6328 32.6562C43.6328 33.5469 44.3828 34 45.4141 34C46.9297 34 47.7734 32.9844 47.7734 31.9219V31.0625L45.6328 31.2188C44.4141 31.2969 43.6328 31.7344 43.6328 32.6562ZM57.9297 26.5156L54.7891 35H53.3984L50.2734 26.5156H51.7422L54.0547 33.25H54.1484L56.4609 26.5156H57.9297ZM58.7422 32.5938C58.7422 30.6406 60.4609 30.2031 61.9297 30.0938C62.4688 30.0547 63.8438 29.9844 64.2266 29.9688V29.2812C64.2266 28.2031 63.5859 27.5781 62.3047 27.5781C61.2266 27.5781 60.5859 28.0781 60.3984 28.7188H58.9922C59.1641 27.3594 60.4922 26.4062 62.3672 26.4062C63.4766 26.4062 65.5547 26.7344 65.5547 29.4062V35H64.2266V33.8438H64.1641C63.8828 34.4219 63.1016 35.2031 61.6328 35.2031C60.0234 35.2031 58.7422 34.25 58.7422 32.5938ZM60.0859 32.6562C60.0859 33.5469 60.8359 34 61.8672 34C63.3828 34 64.2266 32.9844 64.2266 31.9219V31.0625L62.0859 31.2188C60.8672 31.2969 60.0859 31.7344 60.0859 32.6562ZM36.4375 45.5312C36.3125 44.4219 35.2969 43.7812 33.9375 43.7812C32.4375 43.7812 31.4531 44.5625 31.4531 45.6406C31.4531 46.8281 32.7812 47.2656 33.6406 47.4844L34.7656 47.7969C35.9844 48.1094 37.9688 48.8125 37.9688 50.9219C37.9688 52.7656 36.4844 54.2031 33.8594 54.2031C31.4219 54.2031 29.9062 52.9375 29.7812 51.0625H31.2188C31.3438 52.3281 32.5156 52.9219 33.8594 52.9219C35.4219 52.9219 36.5938 52.125 36.5938 50.8906C36.5938 49.7969 35.5469 49.375 34.3594 49.0312L32.9688 48.6562C31.1875 48.1406 30.0938 47.2344 30.0938 45.7031C30.0938 43.7969 31.7969 42.5312 33.9844 42.5312C36.1719 42.5312 37.75 43.8125 37.8125 45.5312H36.4375ZM43.2812 54.1719C40.875 54.1719 39.4062 52.3438 39.4062 49.7969C39.4062 47.2188 40.9375 45.4062 43.25 45.4062C45.0625 45.4062 46.4062 46.4688 46.625 48.0781H45.2812C45.0938 47.2969 44.4062 46.5938 43.2812 46.5938C41.7656 46.5938 40.75 47.8438 40.75 49.75C40.75 51.7188 41.7344 52.9688 43.2812 52.9688C44.2812 52.9688 45.0469 52.4375 45.2812 51.5H46.625C46.4062 53.0156 45.1719 54.1719 43.2812 54.1719ZM48.2812 54V45.5156H49.5781V46.8125H49.6719C49.9844 45.9531 50.8594 45.375 51.8594 45.375C52.0625 45.375 52.4062 45.3906 52.5625 45.4062V46.7656C52.4688 46.7344 52.0938 46.6719 51.75 46.6719C50.5312 46.6719 49.625 47.5156 49.625 48.6562V54H48.2812ZM53.875 54V45.5156H55.2188V54H53.875ZM54.5469 44.1094C54.0312 44.1094 53.6094 43.7188 53.6094 43.2188C53.6094 42.7188 54.0312 42.3281 54.5469 42.3281C55.0625 42.3281 55.5 42.7188 55.5 43.2188C55.5 43.7188 55.0625 44.1094 54.5469 44.1094ZM57.3594 57.1875V45.5156H58.6562V46.8594H58.8125C59.0938 46.4062 59.625 45.4062 61.2656 45.4062C63.3906 45.4062 64.875 47.0938 64.875 49.7812C64.875 52.4688 63.3906 54.1719 61.2812 54.1719C59.6562 54.1719 59.0938 53.1719 58.8125 52.7031H58.7031V57.1875H57.3594ZM58.6719 49.75C58.6719 51.6562 59.5312 52.9688 61.0938 52.9688C62.7031 52.9688 63.5312 51.5625 63.5312 49.75C63.5312 47.9844 62.7188 46.6094 61.0938 46.6094C59.5 46.6094 58.6719 47.875 58.6719 49.75ZM70.3281 45.5156V46.6406H68.5469V51.5625C68.5469 52.6562 69.0781 52.8281 69.6562 52.8281C69.9062 52.8281 70.25 52.8125 70.4531 52.7969V54.0469C70.25 54.0781 69.9062 54.1094 69.5156 54.1094C68.3906 54.1094 67.1875 53.4062 67.1875 51.9062V46.6406H65.9062V45.5156H67.1875V43.4844H68.5469V45.5156H70.3281Z" fill="black"/>
<path d="M33.5996 75L39.4355 63.7676V63.6797H32.7031V62.2734H41.0703V63.75L35.252 75H33.5996ZM47.0117 75.1758C44.1816 75.1758 42.5645 72.8027 42.5645 68.6367C42.5645 64.5059 44.2168 62.0977 47.0117 62.0977C49.8066 62.0977 51.459 64.5059 51.459 68.6367C51.459 72.8027 49.8242 75.1758 47.0117 75.1758ZM47.0117 73.7695C48.8398 73.7695 49.9121 71.9238 49.9121 68.6367C49.9121 65.3496 48.8398 63.4688 47.0117 63.4688C45.1836 63.4688 44.0938 65.3496 44.0938 68.6367C44.0938 71.9238 45.166 73.7695 47.0117 73.7695ZM56.2578 68.1797C54.6055 68.1797 53.709 66.9492 53.709 65.1211C53.709 63.3281 54.6406 62.0801 56.2578 62.0801C57.9277 62.0801 58.8066 63.3281 58.8066 65.1211C58.8066 66.9492 57.8926 68.1797 56.2578 68.1797ZM56.2578 67.0898C57.1191 67.0898 57.5234 66.3164 57.5234 65.1211C57.5234 63.9434 57.1543 63.1523 56.2578 63.1699C55.4141 63.1699 54.9922 63.9434 54.9922 65.1211C54.9922 66.3164 55.4141 67.0898 56.2578 67.0898ZM64.0273 75.1758C62.375 75.1934 61.4609 73.9453 61.4785 72.1348C61.4609 70.3242 62.4102 69.0762 64.0273 69.0762C65.6797 69.0762 66.5586 70.3242 66.5586 72.1348C66.5586 73.9453 65.6445 75.1934 64.0273 75.1758ZM64.0273 74.0859C64.8711 74.0859 65.2754 73.3125 65.2754 72.1348C65.2754 70.9395 64.9062 70.1484 64.0273 70.166C63.1836 70.1836 62.7441 70.9395 62.7441 72.1348C62.7441 73.3125 63.166 74.0859 64.0273 74.0859ZM54.957 75L63.7109 62.2734H65.1348L56.3809 75H54.957Z" fill="black"/>
</g>
<defs>
<clipPath id="clip0_483_28">
<rect width="100" height="100" fill="white"/>
</clipPath>
</defs>
</svg>
