<svg width="100" height="100" viewBox="0 0 100 100" fill="none" xmlns="http://www.w3.org/2000/svg">
<g clip-path="url(#clip0_483_22)">
<path d="M50 100C22.4224 100 0 77.5776 0 50C0 22.4224 22.4224 0 50 0C77.5776 0 100 22.4224 100 50C100 77.5776 77.5776 100 50 100ZM50 13.8581C30.0721 13.8581 13.8581 30.0721 13.8581 50C13.8581 69.9279 30.0721 86.1419 50 86.1419C69.9279 86.1419 86.1419 69.9279 86.1419 50C86.1419 30.0721 69.9279 13.8581 50 13.8581Z" fill="#CCCCCB"/>
<path d="M50 100C22.4224 100 0 77.5776 0 50C0 22.4224 22.4224 0 50 0C61.8071 0 73.2816 4.18514 82.2894 11.8071L73.337 22.3947C66.8237 16.8792 58.5366 13.8581 50 13.8581C30.0721 13.8581 13.8581 30.0721 13.8581 50C13.8581 69.9279 30.0721 86.1419 50 86.1419C69.9279 86.1419 86.1419 69.9279 86.1419 50H100C100 77.5776 77.5776 100 50 100Z" fill="black"/>
<path d="M41.4062 46V33.2734H45.7305C48.7188 33.2734 50.0723 35.0488 50.0723 37.3164C50.0723 39.5664 48.7188 41.377 45.748 41.377H42.9883V46H41.4062ZM42.9883 39.9707H45.6777C47.6992 39.9707 48.5078 38.8281 48.5078 37.3164C48.5078 35.7871 47.6992 34.6797 45.6602 34.6797H42.9883V39.9707ZM57.4023 38.9336C57.1914 38.1426 56.5938 37.6152 55.4688 37.6152C54.291 37.6152 53.4473 38.248 53.4473 39.0566C53.4473 39.6895 53.957 40.1289 55.082 40.3926L56.5059 40.7441C58.2109 41.1484 59.0547 41.9922 59.0547 43.3281C59.0547 44.9805 57.7012 46.1934 55.3105 46.1934C53.166 46.1934 51.8828 45.2441 51.6367 43.5039H53.2188C53.3945 44.4355 54.0801 44.875 55.2754 44.875C56.6289 44.875 57.4902 44.3125 57.4902 43.416C57.4902 42.748 57.0156 42.291 55.9258 42.0449L54.4844 41.7109C52.8145 41.3242 51.9355 40.4102 51.9355 39.1445C51.9355 37.5098 53.3594 36.332 55.4688 36.332C57.4375 36.332 58.6855 37.3867 58.8789 38.9336H57.4023Z" fill="black"/>
<path d="M36.4492 67.1758C33.7773 67.1758 31.9141 65.6992 31.9316 63.625C31.9141 61.9727 33.0566 60.6191 34.5156 60.3906V60.3203C33.25 60.0215 32.4238 58.8613 32.4238 57.4727C32.4238 55.5215 34.1289 54.0977 36.4492 54.0977C38.7695 54.0977 40.4746 55.5215 40.4922 57.4727C40.4746 58.8613 39.6309 60.0215 38.3828 60.3203V60.3906C39.8242 60.6191 40.9668 61.9727 40.9844 63.625C40.9668 65.6992 39.1035 67.1758 36.4492 67.1758ZM36.4492 65.7871C38.2773 65.7871 39.4023 64.873 39.4023 63.5371C39.4023 62.1309 38.1543 61.0938 36.4492 61.0938C34.7441 61.0938 33.4785 62.1309 33.5137 63.5371C33.4785 64.873 34.6211 65.7871 36.4492 65.7871ZM36.4492 59.7578C37.8906 59.7578 38.9453 58.8789 38.9453 57.5957C38.9453 56.3301 37.9434 55.4688 36.4492 55.4688C34.9375 55.4688 33.9531 56.3301 33.9531 57.5957C33.9531 58.8789 34.9902 59.7578 36.4492 59.7578ZM47.2773 67.1758C44.4473 67.1758 42.8301 64.8027 42.8301 60.6367C42.8301 56.5059 44.4824 54.0977 47.2773 54.0977C50.0723 54.0977 51.7246 56.5059 51.7246 60.6367C51.7246 64.8027 50.0898 67.1758 47.2773 67.1758ZM47.2773 65.7695C49.1055 65.7695 50.1777 63.9238 50.1777 60.6367C50.1777 57.3496 49.1055 55.4688 47.2773 55.4688C45.4492 55.4688 44.3594 57.3496 44.3594 60.6367C44.3594 63.9238 45.4316 65.7695 47.2773 65.7695ZM56.5234 60.1797C54.8711 60.1797 53.9746 58.9492 53.9746 57.1211C53.9746 55.3281 54.9062 54.0801 56.5234 54.0801C58.1934 54.0801 59.0723 55.3281 59.0723 57.1211C59.0723 58.9492 58.1582 60.1797 56.5234 60.1797ZM56.5234 59.0898C57.3848 59.0898 57.7891 58.3164 57.7891 57.1211C57.7891 55.9434 57.4199 55.1523 56.5234 55.1699C55.6797 55.1699 55.2578 55.9434 55.2578 57.1211C55.2578 58.3164 55.6797 59.0898 56.5234 59.0898ZM64.293 67.1758C62.6406 67.1934 61.7266 65.9453 61.7441 64.1348C61.7266 62.3242 62.6758 61.0762 64.293 61.0762C65.9453 61.0762 66.8242 62.3242 66.8242 64.1348C66.8242 65.9453 65.9102 67.1934 64.293 67.1758ZM64.293 66.0859C65.1367 66.0859 65.541 65.3125 65.541 64.1348C65.541 62.9395 65.1719 62.1484 64.293 62.166C63.4492 62.1836 63.0098 62.9395 63.0098 64.1348C63.0098 65.3125 63.4316 66.0859 64.293 66.0859ZM55.2227 67L63.9766 54.2734H65.4004L56.6465 67H55.2227Z" fill="black"/>
</g>
<defs>
<clipPath id="clip0_483_22">
<rect width="100" height="100" fill="white"/>
</clipPath>
</defs>
</svg>
